<?xml version="1.0" standalone="no"?>
<!DOCTYPE svg PUBLIC "-//W3C//DTD SVG 20010904//EN"
 "http://www.w3.org/TR/2001/REC-SVG-20010904/DTD/svg10.dtd">
<svg version="1.0" xmlns="http://www.w3.org/2000/svg"
 width="180.000000pt" height="180.000000pt" viewBox="0 0 180.000000 180.000000"
 preserveAspectRatio="xMidYMid meet">
<metadata>
Created by potrace 1.11, written by Peter Selinger 2001-2013
</metadata>
<g transform="translate(0.000000,180.000000) scale(0.100000,-0.100000)"
fill="#000000" stroke="none">
<path d="M0 900 l0 -900 900 0 900 0 0 900 0 900 -900 0 -900 0 0 -900z m437
-142 c-1 -79 -3 -17 -3 137 0 154 2 218 3 143 2 -75 2 -201 0 -280z m293 135
c0 -152 -2 -274 -5 -271 -8 8 -11 548 -2 548 4 0 7 -124 7 -277z m115 267 c3
-5 1 -10 -4 -10 -6 0 -11 5 -11 10 0 6 2 10 4 10 3 0 8 -4 11 -10z m292 -402
c-1 -79 -3 -17 -3 137 0 154 2 218 3 143 2 -75 2 -201 0 -280z m213 391 c0
-10 -139 -13 -164 -3 -36 14 -11 19 74 16 49 -2 90 -8 90 -13z m-305 1 c-3 -5
-40 -10 -81 -10 -43 0 -74 4 -74 10 0 6 34 10 81 10 51 0 78 -4 74 -10z m-195
-270 c0 -167 -4 -260 -10 -260 -6 0 -10 91 -10 253 0 224 3 267 17 267 2 0 3
-117 3 -260z m102 38 c54 3 70 1 62 -8 -15 -16 -137 -9 -140 8 -1 7 -1 9 2 5
2 -5 37 -7 76 -5z m368 -9 c0 -13 -142 -7 -147 6 -2 6 25 9 72 7 41 -2 75 -8
75 -13z m30 -280 c0 -5 -38 -9 -85 -9 -53 0 -85 4 -85 11 0 5 -5 7 -12 3 -6
-4 -9 -3 -6 2 8 12 188 5 188 -7z m-700 1 c0 -6 -33 -10 -80 -10 -47 0 -80 4
-80 10 0 6 33 10 80 10 47 0 80 -4 80 -10z"/>
</g>
</svg>
